<svg width="19" height="20" viewBox="0 0 19 20" fill="none" xmlns="http://www.w3.org/2000/svg">
<path d="M8.07391 7.39719C7.82232 7.1456 7.4144 7.1456 7.16281 7.39719C6.91122 7.64878 6.91122 8.05669 7.16281 8.30827L8.85473 10.0002L7.16283 11.6922C6.91124 11.9437 6.91124 12.3516 7.16283 12.6032C7.41442 12.8548 7.82233 12.8548 8.07391 12.6032L9.76585 10.9113L11.4577 12.6032C11.7093 12.8548 12.1172 12.8548 12.3688 12.6032C12.6204 12.3516 12.6204 11.9437 12.3688 11.6921L10.6769 10.0002L12.3688 8.30827C12.6204 8.05671 12.6204 7.6488 12.3688 7.39721C12.1172 7.14562 11.7093 7.14562 11.4577 7.39721L9.76585 9.08909L8.07391 7.39719Z" fill="white"/>
<path fill-rule="evenodd" clip-rule="evenodd" d="M9.76585 0.766113C4.66599 0.766113 0.531738 4.90037 0.531738 10.0002C0.531738 15.1001 4.66599 19.2343 9.76585 19.2343C14.8657 19.2343 19 15.1001 19 10.0002C19 4.90037 14.8657 0.766113 9.76585 0.766113ZM1.82022 10.0002C1.82022 5.61198 5.3776 2.05459 9.76585 2.05459C14.1541 2.05459 17.7115 5.61198 17.7115 10.0002C17.7115 14.3884 14.1541 17.9459 9.76585 17.9459C5.3776 17.9459 1.82022 14.3884 1.82022 10.0002Z" fill="white"/>
</svg>
