<svg width="18" height="20" viewBox="0 0 18 20" fill="none" xmlns="http://www.w3.org/2000/svg">
<path d="M7.49551 19.1669H0.975586C0.975586 15.6295 3.59129 12.7032 6.99397 12.2165M13.5115 14.3641C12.8095 13.5826 11.6391 13.3724 10.7596 14.088C9.88019 14.8036 9.75631 16.0002 10.447 16.8466C10.8369 17.3244 11.7633 18.1621 12.4962 18.801C12.8437 19.1041 13.0175 19.2556 13.2277 19.3176C13.407 19.3705 13.616 19.3705 13.7953 19.3176C14.0055 19.2556 14.1792 19.1041 14.5268 18.801C15.2596 18.1621 16.1861 17.3244 16.5759 16.8466C17.2667 16.0002 17.1579 14.7961 16.2634 14.088C15.3688 13.3799 14.2134 13.5826 13.5115 14.3641ZM12.0093 5.12395C12.0093 7.33986 10.2129 9.13621 7.99704 9.13621C5.78113 9.13621 3.98478 7.33986 3.98478 5.12395C3.98478 2.90804 5.78113 1.11169 7.99704 1.11169C10.2129 1.11169 12.0093 2.90804 12.0093 5.12395Z" stroke="#3EFF71" stroke-opacity="0.87" stroke-width="0.852797" stroke-linecap="round" stroke-linejoin="round"/>
</svg>
