<svg width="42" height="43" viewBox="0 0 42 43" fill="none" xmlns="http://www.w3.org/2000/svg">
<circle cx="21" cy="21.4836" r="21" fill="#20462B"/>
<path d="M19.4955 29.1669H12.9756C12.9756 25.6295 15.5913 22.7032 18.994 22.2165M25.5115 24.3641C24.8095 23.5826 23.6391 23.3724 22.7596 24.088C21.8802 24.8036 21.7563 26.0002 22.447 26.8466C22.8369 27.3244 23.7633 28.1621 24.4962 28.801C24.8437 29.1041 25.0175 29.2556 25.2277 29.3176C25.407 29.3705 25.616 29.3705 25.7953 29.3176C26.0055 29.2556 26.1792 29.1041 26.5268 28.801C27.2596 28.1621 28.1861 27.3244 28.5759 26.8466C29.2667 26.0002 29.1579 24.7961 28.2634 24.088C27.3688 23.3799 26.2134 23.5826 25.5115 24.3641ZM24.0093 15.124C24.0093 17.3399 22.2129 19.1362 19.997 19.1362C17.7811 19.1362 15.9848 17.3399 15.9848 15.124C15.9848 12.908 17.7811 11.1117 19.997 11.1117C22.2129 11.1117 24.0093 12.908 24.0093 15.124Z" stroke="#3EFF71" stroke-opacity="0.87" stroke-width="0.852797" stroke-linecap="round" stroke-linejoin="round"/>
</svg>
