<svg width="90" height="90" viewBox="0 0 90 90" fill="none" xmlns="http://www.w3.org/2000/svg">
<g clip-path="url(#clip0_3977_5758)">
<circle cx="44.6193" cy="44.6193" r="44.6193" fill="#20462B"/>
<path d="M51.8656 35.5609C51.8656 39.5632 48.621 42.8078 44.6187 42.8078C40.6164 42.8078 37.3718 39.5632 37.3718 35.5609C37.3718 31.5585 40.6164 28.314 44.6187 28.314C48.621 28.314 51.8656 31.5585 51.8656 35.5609Z" stroke="#3EFF71" stroke-opacity="0.87" stroke-width="3" stroke-linecap="round" stroke-linejoin="round"/>
<path d="M44.6191 48.2427C37.615 48.2427 31.937 53.9206 31.937 60.9247H57.3012C57.3012 53.9206 51.6232 48.2427 44.6191 48.2427Z" stroke="#3EFF71" stroke-opacity="0.87" stroke-width="3" stroke-linecap="round" stroke-linejoin="round"/>
<path fill-rule="evenodd" clip-rule="evenodd" d="M86.8706 9.35758C88.3121 10.4866 89.2385 12.2432 89.2385 14.2162C89.2385 16.1892 88.3121 17.9459 86.8705 19.075C87.0914 20.8925 86.5044 22.7898 85.1093 24.1849C83.7141 25.5801 81.8169 26.167 79.9994 25.9461C78.8703 27.3876 77.1137 28.314 75.1407 28.314C73.1677 28.314 71.4111 27.3876 70.2821 25.9459C68.4644 26.167 66.5672 25.5799 65.1721 24.1847C63.7769 22.7898 63.1899 20.8925 63.4109 19.0748C61.9694 17.9458 61.043 16.1892 61.043 14.2162C61.043 12.2432 61.9694 10.4865 63.411 9.35753C63.19 7.53985 63.777 5.64264 65.1721 4.24751C66.5673 2.85237 68.4645 2.26532 70.2821 2.48634C71.4111 1.0448 73.1678 0.118408 75.1407 0.118408C77.1138 0.118408 78.8705 1.04486 79.9995 2.48648C81.8171 2.26546 83.7143 2.85253 85.1095 4.24765C86.5046 5.64276 87.0916 7.53994 86.8706 9.35758ZM82.5546 11.0567L80.0625 8.56455L73.3785 15.2485L70.2191 12.089L67.7269 14.5812L73.3785 20.2328L82.5546 11.0567Z" fill="white"/>
</g>
<defs>
<clipPath id="clip0_3977_5758">
<rect width="89.2385" height="89.2385" fill="white"/>
</clipPath>
</defs>
</svg>
