<svg width="38" height="39" viewBox="0 0 38 39" fill="none" xmlns="http://www.w3.org/2000/svg">
<circle cx="19" cy="19.4836" r="19" fill="#3EFF71" fill-opacity="0.07"/>
<path d="M28.2913 13.0955C27.7805 12.5845 27.1741 12.1791 26.5066 11.9026C25.8392 11.626 25.1238 11.4836 24.4013 11.4836C23.6788 11.4836 22.9634 11.626 22.2959 11.9026C21.6285 12.1791 21.022 12.5845 20.5113 13.0955L19.4513 14.1555L18.3913 13.0955C17.3596 12.0638 15.9603 11.4842 14.5013 11.4842C13.0423 11.4842 11.643 12.0638 10.6113 13.0955C9.5796 14.1272 9 15.5264 9 16.9855C9 18.4445 9.5796 19.8438 10.6113 20.8755L11.6713 21.9355L19.4513 29.7155L27.2313 21.9355L28.2913 20.8755C28.8023 20.3647 29.2076 19.7583 29.4842 19.0908C29.7608 18.4234 29.9031 17.708 29.9031 16.9855C29.9031 16.263 29.7608 15.5476 29.4842 14.8801C29.2076 14.2127 28.8023 13.6062 28.2913 13.0955Z" fill="#3EFF71" fill-opacity="0.87"/>
</svg>
