<svg width="18" height="18" viewBox="0 0 18 18" fill="none" xmlns="http://www.w3.org/2000/svg">
<path d="M9.11182 0.128418C11.0394 0.128418 12.5477 0.127744 13.7222 0.285645C14.9143 0.445973 15.8559 0.77968 16.5942 1.51807C17.5743 2.49826 17.8469 3.84093 17.938 5.66846V7.21045C17.9346 8.76966 17.9144 10.4402 17.8081 11.9224C17.7373 12.9101 17.6266 13.8368 17.4507 14.604C17.2815 15.3415 17.0287 16.0485 16.5942 16.4829C15.8559 17.2213 14.9143 17.556 13.7222 17.7163C12.5477 17.8742 11.0393 17.8726 9.11182 17.8726C7.18433 17.8726 5.67592 17.8742 4.50146 17.7163C3.3093 17.556 2.36783 17.2212 1.62939 16.4829C0.89098 15.7445 0.557294 14.803 0.396973 13.6108C0.239067 12.4364 0.239746 10.9281 0.239746 9.00049C0.239746 7.07285 0.239085 5.56464 0.396973 4.39014C0.557283 3.19785 0.890929 2.25653 1.62939 1.51807C2.36784 0.779657 3.30922 0.445949 4.50146 0.285645C5.67594 0.127781 7.18427 0.128418 9.11182 0.128418ZM9.11182 1.3667C7.14933 1.3667 5.73932 1.36802 4.6665 1.51221C3.61151 1.65405 2.97549 1.92396 2.50537 2.39404C2.03524 2.86417 1.76538 3.50012 1.62354 4.55518C1.47932 5.62801 1.47803 7.03789 1.47803 9.00049C1.47803 10.963 1.47931 12.373 1.62354 13.4458C1.7654 14.5007 2.03529 15.1369 2.50537 15.6069C2.97547 16.0769 3.61168 16.3469 4.6665 16.4888C5.73931 16.633 7.14936 16.6343 9.11182 16.6343C11.0743 16.6343 12.4843 16.633 13.5571 16.4888C14.612 16.3469 15.2482 16.077 15.7183 15.6069C15.888 15.4372 16.0824 15.0347 16.2446 14.3276C16.4001 13.6498 16.5048 12.7945 16.5737 11.8335C16.7108 9.92189 16.7008 7.677 16.7007 5.72998C16.6114 3.93765 16.3451 3.02103 15.7183 2.39404C15.2482 1.92398 14.612 1.65407 13.5571 1.51221C12.4843 1.36798 11.0743 1.3667 9.11182 1.3667ZM13.2388 4.25439C13.5803 4.25469 13.8569 4.53193 13.8569 4.87354V7.96826C13.8569 8.30993 13.5804 8.58711 13.2388 8.5874C12.8969 8.5874 12.6196 8.31011 12.6196 7.96826V6.36768L6.479 12.5083H8.07959C8.42143 12.5083 8.69873 12.7856 8.69873 13.1274C8.69822 13.4689 8.42112 13.7456 8.07959 13.7456H4.98486C4.64333 13.7456 4.36623 13.4689 4.36572 13.1274V10.0317C4.36592 9.69006 4.64314 9.41357 4.98486 9.41357C5.32658 9.41358 5.60381 9.69007 5.604 10.0317V11.6323L11.7437 5.49268H10.1431C9.80139 5.49248 9.5249 5.21526 9.5249 4.87354C9.52498 4.53188 9.80144 4.25459 10.1431 4.25439H13.2388Z" fill="white"/>
</svg>
